# xmcd
#
# Track frame offsets:
#	150
#	13362
#	26498
#	39238
#	52950
#	67219
#	80259
#	93700
#	106175
#	120437
#	133207
#	148254
#	161556
#	175528
#	190058
#	202370
#	214297
#	226726
#	239408
#	253328
#
# Disc length: 3562 seconds
#
# Revision: 0
# Processed by: cddbd v1.5.2PL0 Copyright (c) Steve Scherf et al.
# Submitted via: EasyCDDAExtractor 16.1.0.1
#
DISCID=240de814
DTITLE=Little Walter - Blues with a Feeling: Chess Collectibles, Vol. 3 [CD
DTITLE=1)
DYEAR=1995
DGENRE=Blues
TTITLE0=Juke (Alternate)
TTITLE1=Can't Hold Out Much Longer (Alternate)
TTITLE2=Blue Midnight (Alternate)
TTITLE3=Fast Boogie (Alternate)
TTITLE4=Driftin'
TTITLE5=Tonight With a Fool
TTITLE6=That's It
TTITLE7=Blues With a Feeling (Alternate)
TTITLE8=My Kind of Baby
TTITLE9=Last Boogie
TTITLE10=Come Back Baby
TTITLE11=I Love You So (Oh Baby)
TTITLE12=Big Leg Mama
TTITLE13=Mercy Babe A/K/A My Babe
TTITLE14=Thunderbird
TTITLE15=Crazy for My Baby
TTITLE16=Can't Stop Lovin' You
TTITLE17=Who
TTITLE18=Flying Saucer
TTITLE19=Teenage Beat
EXTD=
EXTT0=
EXTT1=
EXTT2=
EXTT3=
EXTT4=
EXTT5=
EXTT6=
EXTT7=
EXTT8=
EXTT9=
EXTT10=
EXTT11=
EXTT12=
EXTT13=
EXTT14=
EXTT15=
EXTT16=
EXTT17=
EXTT18=
EXTT19=
PLAYORDER=
